<?xml version="1.0" standalone="no"?>
<!DOCTYPE svg PUBLIC "-//W3C//DTD SVG 20010904//EN"
 "http://www.w3.org/TR/2001/REC-SVG-20010904/DTD/svg10.dtd">
<svg version="1.0" xmlns="http://www.w3.org/2000/svg"
 width="190.000000pt" height="47.000000pt" viewBox="0 0 190.000000 47.000000"
 preserveAspectRatio="xMidYMid meet">

<g transform="translate(0.000000,47.000000) scale(0.100000,-0.100000)"
fill="#000000" stroke="none">
<path d="M298 433 c12 -2 30 -2 40 0 9 3 -1 5 -23 4 -22 0 -30 -2 -17 -4z"/>
<path d="M230 420 c-8 -5 -10 -10 -5 -10 6 0 17 5 25 10 8 5 11 10 5 10 -5 0
-17 -5 -25 -10z"/>
<path d="M358 403 c7 -3 16 -2 19 1 4 3 -2 6 -13 5 -11 0 -14 -3 -6 -6z"/>
<path d="M144 367 c-2 -7 -3 -58 -2 -113 l3 -99 63 -3 c53 -3 62 -6 62 -22 0
-10 -6 -21 -13 -23 -6 -3 2 -6 18 -6 31 0 65 19 65 36 0 6 15 14 33 19 24 6 4
10 -88 14 l-120 5 -3 93 -3 92 146 0 145 0 1 -57 c0 -49 2 -54 10 -33 6 13 9
42 7 65 l-3 40 -158 3 c-125 2 -159 0 -163 -11z"/>
<path d="M637 344 c-14 -14 -7 -65 9 -71 19 -7 34 13 34 45 0 14 4 21 11 16 6
-4 9 -19 5 -38 -4 -25 -3 -27 5 -13 19 32 7 62 -26 65 -17 2 -34 0 -38 -4z
m31 -40 c-5 -28 -28 -29 -28 -1 0 13 3 27 7 30 10 11 25 -9 21 -29z"/>
<path d="M753 339 c-28 -10 -30 -19 -3 -12 15 4 20 0 20 -15 0 -26 -19 -39
-31 -21 -7 11 -9 10 -9 -3 0 -28 38 -23 46 6 10 40 2 55 -23 45z"/>
<path d="M800 341 c0 -6 6 -8 13 -5 10 3 14 -4 15 -26 1 -29 -20 -43 -31 -20
-3 6 -4 5 -3 -2 1 -7 12 -14 25 -16 19 -3 21 0 19 35 -3 26 -9 39 -21 41 -9 2
-17 -1 -17 -7z"/>
<path d="M865 339 c-4 -6 -4 -13 -1 -16 3 -4 6 -1 6 6 0 8 7 11 15 7 8 -3 15
-1 15 4 0 13 -27 13 -35 -1z"/>
<path d="M924 336 c-11 -28 0 -61 21 -61 28 0 33 35 6 42 -28 7 -27 21 2 26
l22 4 -23 2 c-12 0 -25 -5 -28 -13z m36 -41 c0 -8 -4 -15 -9 -15 -13 0 -22 16
-14 24 11 11 23 6 23 -9z"/>
<path d="M994 336 c-3 -8 -4 -27 -1 -43 3 -23 4 -21 6 11 1 29 4 37 16 32 8
-3 15 -1 15 4 0 15 -30 12 -36 -4z"/>
<path d="M1094 336 c-10 -25 0 -61 19 -64 9 -2 17 1 17 7 0 6 -7 8 -15 5 -11
-5 -15 1 -15 24 0 27 3 31 28 28 24 -2 27 -5 25 -36 -2 -32 -1 -33 8 -11 15
37 2 61 -32 61 -16 0 -32 -6 -35 -14z"/>
<path d="M1200 343 c0 -6 5 -15 10 -18 13 -8 13 -45 0 -45 -5 0 -14 8 -19 18
-6 9 -10 13 -11 7 0 -5 4 -16 9 -24 12 -18 41 -7 41 17 0 20 -29 64 -30 45z"/>
<path d="M1252 313 c2 -30 7 -38 23 -38 28 0 33 35 6 42 -26 7 -27 20 -3 26
12 3 11 5 -6 6 -21 1 -23 -3 -20 -36z m38 -18 c0 -8 -7 -15 -15 -15 -8 0 -15
7 -15 15 0 8 7 15 15 15 8 0 15 -7 15 -15z"/>
<path d="M1330 342 c0 -6 5 -14 10 -17 13 -8 13 -45 1 -45 -5 0 -12 8 -14 18
-4 13 -5 11 -6 -5 -1 -17 5 -23 19 -23 15 0 20 7 20 29 0 16 -7 34 -15 41 -9
8 -15 9 -15 2z"/>
<path d="M1386 341 c-3 -5 3 -7 14 -4 11 3 20 1 20 -5 0 -5 -9 -12 -21 -15
-27 -7 -22 -42 6 -42 16 0 20 7 20 35 0 24 -5 36 -17 38 -9 2 -19 -1 -22 -7z
m34 -46 c0 -8 -7 -15 -15 -15 -8 0 -15 7 -15 15 0 8 7 15 15 15 8 0 15 -7 15
-15z"/>
<path d="M1455 340 c-3 -5 0 -7 8 -4 9 3 17 -3 21 -18 9 -34 8 -38 -10 -38
-11 0 -15 6 -11 20 3 11 1 20 -4 20 -5 0 -9 -11 -9 -25 0 -18 5 -25 19 -25 26
0 32 12 25 49 -6 30 -27 41 -39 21z"/>
<path d="M1520 315 c0 -37 22 -57 42 -37 7 7 6 20 -3 41 -19 42 -39 40 -39 -4z
m38 -23 c2 -7 -3 -12 -12 -12 -9 0 -16 7 -16 16 0 17 22 14 28 -4z"/>
<path d="M1600 342 c0 -6 5 -14 10 -17 13 -8 13 -45 1 -45 -5 0 -12 8 -14 18
-4 13 -5 11 -6 -5 -1 -17 5 -23 19 -23 15 0 20 7 20 29 0 16 -7 34 -15 41 -9
8 -15 9 -15 2z"/>
<path d="M1655 340 c-4 -6 -4 -14 -1 -17 3 -4 6 -1 6 5 0 7 6 12 13 12 9 0 14
-12 15 -30 1 -29 -20 -42 -31 -20 -3 6 -4 5 -3 -2 2 -7 11 -13 22 -13 15 0 19
7 19 35 0 35 -25 54 -40 30z"/>
<path d="M1732 338 c-14 -14 -16 -68 -3 -68 4 0 6 11 3 25 -5 28 14 35 21 8 4
-17 5 -17 6 0 0 9 6 17 12 17 7 0 9 -10 7 -25 -3 -14 -1 -25 4 -25 5 0 8 12 6
28 -2 20 -9 28 -27 30 -19 3 -21 6 -10 13 8 5 9 9 4 9 -6 0 -16 -5 -23 -12z"/>
<path d="M1817 343 c-9 -9 -9 -61 1 -66 4 -3 7 7 7 21 0 15 5 27 10 27 6 0 10
-12 10 -27 0 -14 3 -24 7 -21 10 5 10 35 2 57 -6 16 -26 21 -37 9z"/>
<path d="M101 317 c-13 -21 -12 -21 5 -5 10 10 16 20 13 22 -3 3 -11 -5 -18
-17z"/>
<path d="M860 288 c0 -11 8 -18 20 -18 11 0 20 5 20 11 0 5 -5 7 -11 3 -6 -3
-15 0 -20 7 -7 11 -9 10 -9 -3z"/>
<path d="M111 167 c-1 -41 3 -53 28 -78 20 -19 39 -29 58 -28 l28 1 -31 9
c-44 12 -67 43 -75 97 l-6 47 -2 -48z"/>
<path d="M634 185 c-4 -8 -3 -27 0 -41 5 -19 12 -25 29 -22 25 3 37 53 16 72
-9 8 -11 7 -6 -6 3 -9 1 -19 -6 -22 -9 -3 -9 -5 1 -5 6 -1 12 -8 12 -17 0 -9
-7 -14 -17 -12 -13 2 -18 13 -18 36 0 35 -3 40 -11 17z"/>
<path d="M714 186 c-3 -8 -4 -27 -1 -43 3 -23 4 -21 6 10 1 47 26 46 26 -1 0
-16 3 -28 7 -25 10 5 10 35 2 57 -8 20 -33 21 -40 2z"/>
<path d="M780 176 c0 -14 4 -26 9 -26 5 0 7 10 4 21 -4 16 -2 20 8 17 8 -3 13
-14 11 -24 -2 -15 -1 -16 7 -4 5 8 7 18 5 22 -3 4 1 8 9 8 8 0 14 -11 14 -29
0 -24 -5 -31 -24 -34 -18 -4 -17 -4 4 -3 25 1 28 5 28 36 0 33 -2 35 -37 38
-35 3 -38 1 -38 -22z"/>
<path d="M892 188 c-14 -14 -16 -68 -3 -68 4 0 6 11 3 25 -5 28 14 35 21 8 4
-16 5 -16 6 0 0 10 7 17 14 14 6 -2 11 -15 10 -28 -2 -20 -1 -21 7 -7 15 25 1
48 -29 49 -23 0 -24 1 -6 9 14 6 15 9 5 9 -9 1 -21 -4 -28 -11z"/>
<path d="M981 187 c8 -8 16 -11 17 -6 8 21 22 7 22 -21 0 -30 -23 -43 -33 -17
-3 7 -6 4 -6 -6 -1 -14 5 -18 22 -15 18 2 22 9 22 38 0 31 -3 35 -29 38 -24 3
-26 2 -15 -11z"/>
<path d="M1046 185 c-3 -9 -2 -25 4 -34 5 -10 6 -21 2 -25 -3 -4 2 -4 11 0 17
6 17 8 1 25 -9 10 -13 23 -9 28 10 17 25 13 26 -6 0 -16 1 -15 8 2 8 19 8 19
19 0 10 -18 11 -18 12 -2 0 9 5 17 11 17 6 0 9 -9 6 -20 -3 -11 -1 -20 5 -20
5 0 8 10 6 23 -3 19 -10 22 -49 25 -36 2 -48 -1 -53 -13z"/>
<path d="M1212 163 c-2 -37 1 -43 18 -43 25 0 35 23 21 47 -10 16 -11 15 -9
-6 2 -13 -2 -26 -9 -28 -7 -3 -13 10 -16 34 l-4 38 -1 -42z"/>
<path d="M1290 192 c0 -6 5 -14 10 -17 15 -9 12 -48 -2 -42 -7 2 -12 10 -10
16 1 6 -2 11 -8 11 -12 0 -12 -3 -4 -24 3 -9 15 -16 25 -16 24 0 27 51 4 70
-9 8 -15 9 -15 2z"/>
<path d="M1345 189 c-5 -8 -1 -9 14 -4 11 3 21 2 21 -3 0 -5 -9 -12 -21 -15
-27 -7 -22 -42 6 -42 16 0 20 7 20 35 0 36 -25 54 -40 29z m35 -44 c0 -8 -7
-15 -15 -15 -8 0 -15 7 -15 15 0 8 7 15 15 15 8 0 15 -7 15 -15z"/>
<path d="M1411 187 c-1 -11 7 -21 19 -24 11 -3 20 -12 20 -19 0 -17 -27 -18
-33 -1 -3 7 -6 4 -6 -6 -1 -14 5 -18 22 -15 18 2 22 10 24 43 1 22 -1 32 -4
23 -2 -10 -11 -18 -18 -18 -7 0 -16 8 -18 18 -4 15 -5 15 -6 -1z"/>
<path d="M1504 175 c16 -25 14 -45 -4 -45 -5 0 -11 8 -13 18 -4 13 -5 11 -6
-5 -1 -27 33 -32 43 -7 6 16 -17 64 -30 64 -4 0 1 -11 10 -25z"/>
<path d="M1554 176 c-12 -19 -13 -29 -5 -43 10 -16 10 -15 8 6 -2 28 19 40 26
14 4 -17 5 -17 6 0 0 9 6 17 12 17 7 0 9 -10 7 -25 -3 -14 -1 -25 3 -25 5 0 9
14 9 30 0 26 -4 30 -27 31 -25 0 -26 1 -8 9 17 7 17 9 3 9 -10 1 -25 -10 -34
-23z"/>
<path d="M1646 193 c-9 -10 -7 -46 4 -63 7 -11 8 -6 4 16 -7 39 12 55 25 22
l10 -23 0 23 c1 12 6 22 12 22 8 0 10 -13 6 -37 -4 -25 -3 -33 4 -26 6 6 9 23
7 39 -2 24 -8 29 -34 31 -17 1 -34 0 -38 -4z"/>
<path d="M1745 190 c3 -5 12 -7 20 -3 8 3 15 1 15 -5 0 -5 -9 -12 -21 -15 -27
-7 -22 -42 6 -42 16 0 21 8 23 38 3 34 1 37 -23 37 -14 0 -24 -4 -20 -10z m35
-45 c0 -8 -7 -15 -15 -15 -8 0 -15 7 -15 15 0 8 7 15 15 15 8 0 15 -7 15 -15z"/>
<path d="M1814 186 c-3 -8 -4 -27 -1 -43 3 -23 4 -22 6 10 1 37 14 49 24 23 3
-8 4 -25 1 -38 -4 -22 -4 -22 5 -1 5 11 7 30 4 42 -6 24 -31 28 -39 7z"/>
<path d="M416 125 c-48 -43 -111 -74 -173 -85 l-48 -9 47 3 c58 4 124 36 180
86 24 22 41 39 38 39 -3 0 -23 -15 -44 -34z"/>
<path d="M1108 123 c7 -3 16 -2 19 1 4 3 -2 6 -13 5 -11 0 -14 -3 -6 -6z"/>
</g>
</svg>
